<svg width="18" height="18" viewBox="0 0 18 18" fill="none" xmlns="http://www.w3.org/2000/svg">
<path d="M9.06101 18C6.54406 18 4.40465 17.1203 2.6428 15.3608C0.880935 13.6014 0 11.4649 0 8.95138C0 6.66021 0.747823 4.67357 2.24347 2.99145C3.73912 1.30934 5.59053 0.316032 7.79771 0.0115082C7.8035 0.0115082 7.81511 0.0125919 7.83254 0.0147598C7.84998 0.0169465 7.89645 0.0120271 7.97196 0C7.62636 0.561618 7.3628 1.16942 7.18128 1.82341C6.99978 2.4774 6.90902 3.15677 6.90902 3.86153C6.90902 5.87234 7.61377 7.58152 9.02326 8.98907C10.4327 10.3966 12.1442 11.1004 14.1578 11.1004C14.849 11.1004 15.5257 11.0167 16.1878 10.8492C16.85 10.6817 17.454 10.4392 18 10.1216C17.9898 10.1738 17.9859 10.2017 17.988 10.2053C17.9902 10.209 17.9913 10.213 17.9913 10.213C17.7009 12.4171 16.7135 14.266 15.029 15.7596C13.3446 17.2532 11.3553 18 9.06101 18ZM9.06101 17.1299C10.9008 17.1299 12.5307 16.588 13.9509 15.504C15.371 14.4201 16.3279 13.0929 16.8216 11.5224C16.4078 11.6718 15.9739 11.7838 15.5198 11.8585C15.0658 11.9331 14.6118 11.9705 14.1578 11.9705C11.9083 11.9705 9.99262 11.1806 8.41068 9.60081C6.82875 8.02102 6.03778 6.10792 6.03778 3.86153C6.03778 3.43809 6.07408 3.00704 6.14668 2.56839C6.21929 2.12974 6.34199 1.66027 6.51479 1.15998C4.86812 1.71247 3.51587 2.70624 2.45802 4.14127C1.40019 5.57629 0.871269 7.17966 0.871269 8.95138C0.871269 11.2237 1.66737 13.1549 3.25957 14.7449C4.85178 16.3349 6.78559 17.1299 9.06101 17.1299Z" fill="white"/>
</svg>
