<svg width="20" height="19" viewBox="0 0 20 19" fill="none" xmlns="http://www.w3.org/2000/svg">
<path d="M15.2714 13.4211C14.1797 14.5128 12.7951 15.8148 11.1157 17.3278C11.1156 17.3279 11.1155 17.3281 11.1153 17.3282L10 18.3281L8.88469 17.3282C8.88454 17.3281 8.8844 17.3279 8.88426 17.3278C7.20494 15.8148 5.82026 14.5128 4.72855 13.4211C3.63918 12.3317 2.78211 11.3631 2.15137 10.514C1.52024 9.6644 1.09558 8.90484 0.859094 8.23353C0.619291 7.5528 0.5 6.85893 0.5 6.14966C0.5 4.70749 0.977907 3.52886 1.92855 2.57821C2.8792 1.62756 4.05783 1.14966 5.5 1.14966C6.29356 1.14966 7.04619 1.31696 7.76303 1.6525C8.48066 1.98841 9.09824 2.46079 9.61903 3.07348L10 3.52168L10.381 3.07348C10.9018 2.46079 11.5193 1.98841 12.237 1.6525C12.9538 1.31696 13.7064 1.14966 14.5 1.14966C15.9422 1.14966 17.1208 1.62757 18.0714 2.57821C19.0221 3.52886 19.5 4.70749 19.5 6.14966C19.5 6.85893 19.3807 7.5528 19.1409 8.23353C18.9044 8.90484 18.4798 9.6644 17.8486 10.514C17.2179 11.3631 16.3608 12.3317 15.2714 13.4211Z" fill="#F070FF" stroke="black"/>
</svg>
