<svg width="20" height="19" viewBox="0 0 20 19" fill="none" xmlns="http://www.w3.org/2000/svg">
<path d="M14.9179 13.0676C13.8345 14.151 12.4568 15.4465 10.7815 16.956C10.7812 16.9562 10.7809 16.9565 10.7806 16.9567L10 17.6566L9.21937 16.9567C9.21894 16.9563 9.21851 16.956 9.21809 16.9556C7.54298 15.4463 6.16543 14.1509 5.08211 13.0676C4.00337 11.9888 3.16423 11.039 2.55274 10.2158C1.94048 9.39164 1.54532 8.67668 1.33069 8.0674C1.10942 7.43927 1 6.80154 1 6.14966C1 4.83198 1.43081 3.78306 2.28211 2.93177C3.1334 2.08047 4.18232 1.64966 5.5 1.64966C6.22046 1.64966 6.90071 1.80093 7.55106 2.10535C8.20298 2.4105 8.76314 2.83858 9.23806 3.39731L10 4.29371L10.7619 3.39731C11.2369 2.83858 11.797 2.4105 12.4489 2.10535L12.0278 1.20555L12.4489 2.10535C13.0993 1.80093 13.7795 1.64966 14.5 1.64966C15.8177 1.64966 16.8666 2.08047 17.7179 2.93176L18.3913 2.25833L17.7179 2.93177C18.5692 3.78306 19 4.83198 19 6.14966C19 6.80154 18.8906 7.43927 18.6693 8.0674C18.4547 8.67668 18.0595 9.39164 17.4473 10.2158C16.8358 11.039 15.9966 11.9888 14.9179 13.0676Z" stroke="white" stroke-width="2"/>
</svg>
