<svg width="117" height="20" viewBox="0 0 117 20" fill="none" xmlns="http://www.w3.org/2000/svg">
<path d="M5.87693 16.7795L10.0769 14.2462L14.2769 16.8129L13.1769 12.0129L16.8769 8.81286L12.0103 8.37953L10.0769 3.8462L8.1436 8.3462L3.27693 8.77953L6.97693 12.0129L5.87693 16.7795ZM3.8436 19.577L5.49743 12.4924L0 7.7308L7.24103 7.1026L10.0769 0.423096L12.9128 7.1026L20.1539 7.7308L14.6564 12.4924L16.3103 19.577L10.0769 15.8154L3.8436 19.577Z" fill="white"/>
<path d="M30.0308 16.7795L34.2308 14.2462L38.4308 16.8129L37.3308 12.0129L41.0308 8.81286L36.1641 8.37953L34.2308 3.8462L32.2975 8.3462L27.4308 8.77953L31.1308 12.0129L30.0308 16.7795ZM27.9975 19.577L29.6513 12.4924L24.1539 7.7308L31.3949 7.1026L34.2308 0.423096L37.0667 7.1026L44.3077 7.7308L38.8103 12.4924L40.4641 19.577L34.2308 15.8154L27.9975 19.577Z" fill="white"/>
<path d="M54.1847 16.7795L58.3847 14.2462L62.5847 16.8129L61.4847 12.0129L65.1847 8.81286L60.318 8.37953L58.3847 3.8462L56.4513 8.3462L51.5847 8.77953L55.2847 12.0129L54.1847 16.7795ZM52.1513 19.577L53.8052 12.4924L48.3077 7.7308L55.5488 7.1026L58.3847 0.423096L61.2206 7.1026L68.4616 7.7308L62.9642 12.4924L64.618 19.577L58.3847 15.8154L52.1513 19.577Z" fill="white"/>
<path d="M78.3385 16.7795L82.5385 14.2462L86.7385 16.8129L85.6385 12.0129L89.3385 8.81286L84.4719 8.37953L82.5385 3.8462L80.6052 8.3462L75.7385 8.77953L79.4385 12.0129L78.3385 16.7795ZM76.3052 19.577L77.959 12.4924L72.4616 7.7308L79.7026 7.1026L82.5385 0.423096L85.3744 7.1026L92.6155 7.7308L87.118 12.4924L88.7719 19.577L82.5385 15.8154L76.3052 19.577Z" fill="white"/>
<path d="M102.492 16.7795L106.692 14.2462L110.892 16.8129L109.792 12.0129L113.492 8.81286L108.626 8.37953L106.692 3.8462L104.759 8.3462L99.8924 8.77953L103.592 12.0129L102.492 16.7795ZM100.459 19.577L102.113 12.4924L96.6155 7.7308L103.857 7.1026L106.692 0.423096L109.528 7.1026L116.769 7.7308L111.272 12.4924L112.926 19.577L106.692 15.8154L100.459 19.577Z" fill="white"/>
</svg>
