<svg width="240" height="22" viewBox="0 0 240 22" fill="none" xmlns="http://www.w3.org/2000/svg">
<rect width="160" height="22" rx="11" fill="#D9D9D9"/>
<rect width="80" height="22" rx="11" fill="#363636"/>
<rect width="80" height="22" rx="11" fill="url(#paint0_linear_418_9310)"/>
<path d="M189.963 15.132V16H185.217V15.132H187.205V9.14C187.131 9.252 187.005 9.37333 186.827 9.504C186.65 9.63467 186.445 9.756 186.211 9.868C185.987 9.98 185.763 10.0733 185.539 10.148C185.315 10.2227 185.11 10.26 184.923 10.26V9.336C185.138 9.336 185.371 9.27533 185.623 9.154C185.875 9.03267 186.118 8.89267 186.351 8.734C186.585 8.57533 186.781 8.426 186.939 8.286C187.098 8.146 187.187 8.05267 187.205 8.006H188.185V15.132H189.963ZM193.936 18.086C193.236 18.086 192.601 17.9087 192.032 17.554C191.462 17.2087 191.038 16.7513 190.758 16.182L191.388 15.706C191.649 16.1633 192.004 16.532 192.452 16.812C192.909 17.092 193.408 17.232 193.95 17.232C194.416 17.232 194.832 17.1293 195.196 16.924C195.569 16.7187 195.863 16.434 196.078 16.07C196.302 15.706 196.414 15.286 196.414 14.81C196.414 14.3527 196.306 13.9513 196.092 13.606C195.886 13.2513 195.602 12.976 195.238 12.78C194.883 12.584 194.482 12.486 194.034 12.486C193.604 12.486 193.194 12.584 192.802 12.78C192.41 12.9667 192.092 13.242 191.85 13.606H190.968L192.074 8.006H196.876V8.888H192.788L192.102 12.458C192.344 12.1967 192.643 11.996 192.998 11.856C193.352 11.7067 193.735 11.632 194.146 11.632C194.752 11.632 195.298 11.7673 195.784 12.038C196.278 12.3087 196.67 12.682 196.96 13.158C197.249 13.634 197.394 14.18 197.394 14.796C197.394 15.4493 197.235 16.0233 196.918 16.518C196.61 17.0127 196.194 17.3953 195.672 17.666C195.149 17.946 194.57 18.086 193.936 18.086ZM205.96 6.06L199.352 16H198.274L204.882 6.06H205.96ZM210.751 12.696C211.171 12.7613 211.531 12.9107 211.829 13.144C212.128 13.3773 212.361 13.6713 212.529 14.026C212.697 14.3807 212.781 14.782 212.781 15.23C212.781 15.79 212.646 16.2847 212.375 16.714C212.105 17.1433 211.727 17.4747 211.241 17.708C210.756 17.9413 210.191 18.058 209.547 18.058C208.838 18.058 208.217 17.9133 207.685 17.624C207.153 17.344 206.752 16.952 206.481 16.448L207.139 15.846C207.345 16.2473 207.648 16.5693 208.049 16.812C208.451 17.064 208.95 17.19 209.547 17.19C210.238 17.19 210.784 17.0173 211.185 16.672C211.596 16.336 211.801 15.8507 211.801 15.216C211.801 14.5813 211.587 14.0773 211.157 13.704C210.737 13.3213 210.135 13.13 209.351 13.13H209.001V12.318H209.379C210.098 12.318 210.649 12.15 211.031 11.814C211.414 11.478 211.605 11.0487 211.605 10.526C211.605 10.1433 211.517 9.826 211.339 9.574C211.162 9.322 210.919 9.13067 210.611 9C210.313 8.86933 209.967 8.804 209.575 8.804C209.043 8.804 208.572 8.92533 208.161 9.168C207.76 9.40133 207.457 9.728 207.251 10.148L206.635 9.56C206.794 9.23333 207.023 8.94867 207.321 8.706C207.62 8.46333 207.97 8.27667 208.371 8.146C208.773 8.006 209.202 7.936 209.659 7.936C210.238 7.936 210.747 8.04333 211.185 8.258C211.624 8.46333 211.969 8.75267 212.221 9.126C212.473 9.49933 212.599 9.938 212.599 10.442C212.599 10.8153 212.525 11.1607 212.375 11.478C212.226 11.7953 212.011 12.0613 211.731 12.276C211.461 12.4907 211.134 12.6307 210.751 12.696ZM221.226 11.898C221.226 12.7193 221.072 13.452 220.764 14.096C220.465 14.7307 220.05 15.23 219.518 15.594C218.986 15.958 218.384 16.14 217.712 16.14C217.04 16.14 216.438 15.958 215.906 15.594C215.383 15.23 214.968 14.7307 214.66 14.096C214.352 13.452 214.198 12.7193 214.198 11.898C214.198 11.0767 214.352 10.3487 214.66 9.714C214.968 9.07 215.383 8.566 215.906 8.202C216.438 7.82867 217.04 7.642 217.712 7.642C218.384 7.642 218.986 7.82867 219.518 8.202C220.05 8.566 220.465 9.07 220.764 9.714C221.072 10.3487 221.226 11.0767 221.226 11.898ZM220.26 11.898C220.26 11.2353 220.152 10.652 219.938 10.148C219.723 9.644 219.424 9.252 219.042 8.972C218.659 8.68267 218.216 8.538 217.712 8.538C217.208 8.538 216.764 8.68267 216.382 8.972C215.999 9.252 215.696 9.644 215.472 10.148C215.257 10.652 215.15 11.2353 215.15 11.898C215.15 12.5607 215.257 13.144 215.472 13.648C215.696 14.152 215.999 14.544 216.382 14.824C216.764 15.104 217.208 15.244 217.712 15.244C218.216 15.244 218.659 15.104 219.042 14.824C219.424 14.5347 219.723 14.1427 219.938 13.648C220.152 13.144 220.26 12.5607 220.26 11.898Z" fill="white"/>
<defs>
<linearGradient id="paint0_linear_418_9310" x1="40" y1="0" x2="40" y2="22" gradientUnits="userSpaceOnUse">
<stop stop-color="#98F9FF"/>
<stop offset="1" stop-color="#33ACB4"/>
</linearGradient>
</defs>
</svg>
